<svg xmlns="http://www.w3.org/2000/svg" width="60" height="60" viewBox="0 0 60 60">
  <g fill="none">
    <path fill="#F90" d="M30,60 C46.5656566,60 60,46.5656566 60,30 C60,13.4343434 46.5656566,0 30,0 C13.4343434,0 0,13.4343434 0,30 C0,46.5656566 13.4343434,60 30,60 Z"/>
    <path fill="#FFF" d="M45.723104,46.4945468 C44.869117,44.7568382 43.354539,43.481567 41.71341,42.5036451 C41.144402,42.1644291 40.50189,41.9251225 39.941922,41.7417175 C38.654043,41.324715 37.407556,41.228136 35.954113,40.9795521 C34.77328,40.7775926 33.840317,40.2920808 32.839083,39.6124595 C32.317651,39.2558784 31.891134,38.7670363 31.53479,38.2489351 C31.468422,38.1445061 31.135391,37.7389218 31.168694,37.5995245 C31.168694,37.5995245 30.936524,38.5289191 31.396345,39.8332116 C27.169704,39.6438596 23.464496,37.3000344 21.767465,34.4588036 C18.642919,29.2306914 19.744063,22.8945372 23.90933,20.0963625 C28.073408,17.2972363 34.423359,19.2718727 37.822417,24.32443 C39.955957,27.4953616 40.50189,31.1843944 39.587958,34.1847666 C39.581059,34.2080788 39.572495,34.2299637 39.565597,34.2532758 C37.759617,32.9397061 36.109924,33.6098122 36.109924,33.6098122 C37.919948,33.422839 39.35103,34.8631985 39.35103,34.8631985 C39.561077,35.0501716 39.763037,35.2568888 39.94668,35.4869181 C39.987357,35.5425819 40.030175,35.599435 40.071091,35.6598564 C40.544946,36.30332 40.840868,37.0188611 40.966468,37.7448688 C44.560112,33.1859112 45.153858,26.871642 41.97365,21.9677593 C37.923278,15.7174796 29.286117,14.1215471 22.688533,18.3983798 C16.087619,22.6785428 14.022351,31.2098475 18.074863,37.4591757 C21.403747,42.6011756 29.21285,44.1692762 33.689264,42.752229 C35.381775,42.2200929 41.176754,41.7136478 45.210712,46.478371 C45.210712,46.478371 45.558967,46.8768189 45.748557,47.3309306 C45.748557,47.3309306 45.804458,47.4900718 45.954085,47.4132368 C45.993573,47.3923034 46.1049,47.2633728 45.723104,46.4945468 L45.723104,46.4945468 Z M37.416833,38.056015 C37.412075,38.0526847 37.408983,38.0526847 37.404225,38.0491165 C37.394948,38.0491165 37.388049,38.0455483 37.381865,38.0434074 C37.371636,38.0398392 37.36331,38.0353195 37.354033,38.0329407 C37.348561,38.0329407 37.340236,38.0329407 37.337857,38.0305619 C37.32287,38.0258043 37.309073,38.022474 37.29266,38.016527 C37.105449,37.9841754 36.919665,38.0120073 36.765519,38.1119166 C36.415599,38.3500339 36.362076,38.8878791 36.64872,39.3162998 C36.782646,39.5104093 36.961532,39.645049 37.154214,39.7195052 C37.15802,39.7195052 37.16135,39.7195052 37.169676,39.7240249 C37.175147,39.7252143 37.183473,39.7299719 37.189182,39.7299719 C37.19846,39.7344916 37.207737,39.7344916 37.216063,39.7368704 C37.223913,39.7368704 37.227719,39.7404386 37.23319,39.7425795 C37.248652,39.7461477 37.26126,39.7518568 37.276484,39.7530462 C37.462268,39.7901554 37.649003,39.7635129 37.804814,39.6590839 C38.156875,39.4209667 38.210398,38.8855003 37.923278,38.4580311 C37.790779,38.2617806 37.610942,38.1247621 37.416833,38.056015 L37.416833,38.056015 Z M39.757566,37.0688157 C39.461168,36.9584397 39.434525,37.3081223 39.508982,37.5357729 C39.673832,38.0688605 39.897914,38.4765857 40.061813,38.5579404 C40.218338,38.6530921 40.404122,38.4335295 40.285658,37.9004419 C40.234752,37.6692232 40.059434,37.1860902 39.757566,37.0688157 L39.757566,37.0688157 Z"/>
  </g>
</svg>
