

<svg width="50" height="50" viewBox="0 0 50 50" fill="none" xmlns="http://www.w3.org/2000/svg">
<path d="M25 50C38.8071 50 50 38.8071 50 25C50 11.1929 38.8071 0 25 0C11.1929 0 0 11.1929 0 25C0 38.8071 11.1929 50 25 50Z" fill="white"/>
<path fill-rule="evenodd" clip-rule="evenodd" d="M11.3164 24.7361C18.6044 21.5608 23.4643 19.4675 25.8959 18.4561C32.8386 15.5684 34.2813 15.0667 35.2216 15.0502C35.4284 15.0465 35.8908 15.0978 36.1903 15.3408C36.4433 15.546 36.5128 15.8233 36.5461 16.0179C36.5794 16.2124 36.6209 16.6557 36.5879 17.002C36.2117 20.9551 34.5838 30.5482 33.7556 34.9758C33.4051 36.8492 32.7151 37.4774 32.047 37.5388C30.5952 37.6724 29.4928 36.5794 28.0867 35.6577C25.8864 34.2153 24.6433 33.3174 22.5075 31.91C20.0392 30.2834 21.6393 29.3894 23.046 27.9284C23.4141 27.5461 29.8108 21.7278 29.9346 21.2C29.9501 21.134 29.9644 20.8879 29.8182 20.758C29.6721 20.6281 29.4563 20.6725 29.3006 20.7078C29.08 20.7579 25.5649 23.0813 18.7555 27.6778C17.7578 28.3629 16.854 28.6967 16.0443 28.6792C15.1517 28.66 13.4346 28.1745 12.1582 27.7596C10.5926 27.2507 9.34824 26.9816 9.45659 26.1173C9.51303 25.6671 10.133 25.2067 11.3164 24.7361Z" fill="black"/>
</svg>