<svg xmlns="http://www.w3.org/2000/svg" width="60" height="60" viewBox="0 0 60 60">
  <g fill="none">
    <path fill="#FFDB4D" d="M30,60 C46.5656566,60 60,46.5656566 60,30 C60,13.4343434 46.5656566,0 30,0 C13.4343434,0 0,13.4343434 0,30 C0,46.5656566 13.4343434,60 30,60 Z"/>
    <g transform="translate(15 10)">
      <path fill="#FFF" d="M0.000367206178,16.6031166 C0.000367206178,14.7354588 0.160716511,13.5503846 4.1193856,10.663276 C7.39687622,8.27315715 17.9019583,0.105353215 17.9019583,0.105353215 L17.9019583,13.7400443 L25.8910252,13.7400443 L25.8910252,33.3638444 L2.495696,33.3638444 C1.12330188,33.3638444 0,32.2663055 0,30.9255333 L0.000367206178,16.6031166"/>
      <polyline fill="#FC0" points="17.902 13.74 17.902 21.64 3.222 31.411 21.782 25.511 21.782 13.74 17.902 13.74"/>
      <path fill="#FC0" d="M11.1936048,13.3314269 C12.0520243,12.3320661 13.3056865,11.9791747 13.9942093,12.5436097 C14.6826096,13.1080446 14.5450275,14.3759902 13.6864855,15.3752314 C12.8284331,16.3744726 11.5744037,16.7268856 10.885881,16.1624507 C10.1974807,15.5981354 10.33543,14.330668 11.1936048,13.3314269"/>
    </g>
  </g>
</svg>
