<svg width="59" height="70" viewBox="0 0 59 70" fill="none" xmlns="http://www.w3.org/2000/svg">
<path d="M29.8066 40.7647H25.1719C24.9021 40.7659 24.6444 40.6621 24.4629 40.479C24.2814 40.296 24.1932 40.0509 24.2202 39.8047L24.6294 35.5284C24.6692 35.0739 25.0839 34.724 25.5811 34.7255H30.2159C30.4857 34.7243 30.7433 34.8281 30.9248 35.0112C31.1063 35.1942 31.1945 35.4393 31.1676 35.6855L30.7583 39.9618C30.7186 40.4163 30.3039 40.7662 29.8066 40.7647ZM30.5495 32.3922H25.8285C25.3071 32.3922 24.8844 31.9757 24.8844 31.4619L26.1685 17.0147C26.2261 16.545 26.6324 16.1927 27.1126 16.1961H31.8336C32.355 16.1961 32.7778 16.6126 32.7778 17.1264L31.4559 31.5828C31.396 32.035 31.0121 32.3778 30.5495 32.3922ZM58.3081 15.5448C58.8105 16.1418 59.0559 16.9189 58.9892 17.7017L57.144 39.1646C57.0848 39.8666 56.7787 40.5234 56.2818 41.0145L41.1923 55.9193C40.6536 56.4495 39.9329 56.7451 39.1832 56.7435H23.1194L8.97836 70L10.0734 56.7347H2.8822C2.07453 56.7354 1.30371 56.3911 0.757718 55.7859C0.21173 55.1808 -0.0592414 54.3703 0.0108862 53.5521L4.39977 2.63027C4.55037 1.13375 5.79163 -0.00330306 7.27109 7.20923e-06H43.8911C44.7336 -0.000240194 45.5339 0.374611 46.0813 1.02581L58.3081 15.5448ZM47.1246 35.0701L48.2973 21.8224C48.3428 21.037 48.0755 20.266 47.5557 19.6831L40.6577 11.5819C40.111 10.9419 39.3185 10.5741 38.4848 10.5737H16.7559C15.2765 10.5703 14.0352 11.7074 13.8846 13.2039L11.2978 43.0135C11.2383 43.8291 11.5129 44.6335 12.0566 45.2362C12.6003 45.8389 13.3649 46.1863 14.1691 46.1961H35.5359C36.2772 46.1979 36.9906 45.909 37.5277 45.3895L46.2623 36.9289C46.7612 36.4356 47.0674 35.7753 47.1246 35.0701Z" fill="white"/>
</svg>
