<svg width="50" height="50" viewBox="0 0 50 50" fill="none" xmlns="http://www.w3.org/2000/svg">
<path d="M25 0C11.1958 0 0 11.1938 0 25C0 36.0458 7.1625 45.4167 17.0979 48.7229C18.3458 48.9542 18.75 48.1792 18.75 47.5208V42.8667C11.7958 44.3792 10.3479 39.9167 10.3479 39.9167C9.21042 37.0271 7.57083 36.2583 7.57083 36.2583C5.30208 34.7063 7.74375 34.7396 7.74375 34.7396C10.2542 34.9146 11.575 37.3167 11.575 37.3167C13.8042 41.1375 17.4229 40.0333 18.85 39.3938C19.0729 37.7792 19.7208 36.675 20.4375 36.0521C14.8854 35.4167 9.04792 33.2729 9.04792 23.6958C9.04792 20.9646 10.025 18.7354 11.6229 16.9854C11.3646 16.3542 10.5083 13.8104 11.8667 10.3688C11.8667 10.3688 13.9667 9.69792 18.7437 12.9313C20.7375 12.3771 22.875 12.1 25 12.0896C27.125 12.1 29.2646 12.3771 31.2625 12.9313C36.0354 9.69792 38.1312 10.3688 38.1312 10.3688C39.4917 13.8125 38.6354 16.3563 38.3771 16.9854C39.9812 18.7354 40.95 20.9667 40.95 23.6958C40.95 33.2979 35.1021 35.4125 29.5354 36.0313C30.4312 36.8063 31.25 38.3271 31.25 40.6604V47.5208C31.25 48.1854 31.65 48.9667 32.9187 48.7208C42.8458 45.4104 50 36.0417 50 25C50 11.1938 38.8062 0 25 0Z" fill="white"/>
</svg>
