<svg width="30" height="30" viewBox="0 0 30 30" fill="none" xmlns="http://www.w3.org/2000/svg">
<g clip-path="url(#clip0_9_211)">
<path d="M0.548909 26.8001C0.197331 27.1518 -0.000117126 27.6288 9.16628e-08 28.1262C0.000117309 28.6235 0.197791 29.1004 0.549534 29.452C0.901277 29.8035 1.37828 30.001 1.8756 30.0009C2.37292 30.0008 2.84983 29.8031 3.20141 29.4513L14.7789 17.8751C14.8079 17.846 14.8424 17.8229 14.8804 17.8071C14.9184 17.7914 14.9591 17.7833 15.0002 17.7833C15.0413 17.7833 15.082 17.7914 15.1199 17.8071C15.1579 17.8229 15.1924 17.846 15.2214 17.8751L26.7989 29.4538C26.973 29.628 27.1797 29.7662 27.4072 29.8605C27.6346 29.9547 27.8785 30.0033 28.1247 30.0034C28.371 30.0034 28.6148 29.955 28.8423 29.8608C29.0699 29.7666 29.2766 29.6285 29.4508 29.4545C29.6249 29.2804 29.7631 29.0737 29.8574 28.8462C29.9517 28.6187 30.0003 28.3749 30.0003 28.1287C30.0004 27.8824 29.9519 27.6386 29.8577 27.411C29.7636 27.1835 29.6255 26.9767 29.4514 26.8026L17.8752 15.2213C17.8461 15.1923 17.823 15.1578 17.8072 15.1199C17.7915 15.0819 17.7833 15.0412 17.7833 15.0001C17.7833 14.959 17.7915 14.9183 17.8072 14.8803C17.823 14.8423 17.8461 14.8079 17.8752 14.7788L29.4539 3.20133C29.8055 2.84926 30.0028 2.37194 30.0025 1.87438C30.0021 1.37683 29.8041 0.899787 29.452 0.548209C29.1 0.196632 28.6226 -0.000684941 28.1251 -0.000333317C27.6275 1.83074e-05 27.1505 0.198009 26.7989 0.550084L15.2214 12.1251C15.1924 12.1542 15.1579 12.1773 15.1199 12.193C15.082 12.2088 15.0413 12.2169 15.0002 12.2169C14.9591 12.2169 14.9184 12.2088 14.8804 12.193C14.8424 12.1773 14.8079 12.1542 14.7789 12.1251L3.20141 0.550084C3.02733 0.375919 2.82064 0.237747 2.59316 0.143458C2.36568 0.0491684 2.12185 0.000608569 1.8756 0.000550532C1.37828 0.000433322 0.901277 0.197882 0.549534 0.549459C0.19779 0.901037 0.000117262 1.37794 5.21543e-08 1.87527C-0.000117158 2.37259 0.197331 2.84959 0.548909 3.20133L12.1252 14.7788C12.1543 14.8079 12.1773 14.8423 12.1931 14.8803C12.2089 14.9183 12.217 14.959 12.217 15.0001C12.217 15.0412 12.2089 15.0819 12.1931 15.1199C12.1773 15.1578 12.1543 15.1923 12.1252 15.2213L0.548909 26.8001Z" fill="white"/>
</g>
<defs>
<clipPath id="clip0_9_211">
<rect width="30" height="30" fill="white"/>
</clipPath>
</defs>
</svg>
