<svg width="58" height="60" viewBox="0 0 58 60" fill="none" xmlns="http://www.w3.org/2000/svg">
<path d="M39.779 51.9422C44.725 51.9422 50.0917 53.6441 56.0313 58.9253C56.6264 59.4545 57.4183 58.797 56.8994 58.1398C51.0621 50.7439 45.6631 49.3359 40.2788 48.1451C33.6931 46.6889 30.3054 42.9702 27.9444 38.887C27.4745 38.0747 27.2638 38.218 27.2218 39.2621C27.1701 40.5392 27.2578 42.229 27.5424 43.8918C27.2769 43.9041 27.0096 43.9007 26.7411 43.9007C17.3189 43.9007 9.68084 36.2362 9.68084 26.7811C9.68084 17.3259 17.3189 9.66098 26.7411 9.66098C36.163 9.66098 43.8011 17.3259 43.8011 26.7811C43.8011 27.4538 43.7685 28.1187 43.6931 28.7711C42.4468 28.5457 39.9953 28.5202 38.2751 28.6695C37.6279 28.7256 37.719 29.0281 38.2083 29.1169C43.8476 30.1396 47.7224 33.6468 48.608 40.0113C48.6283 40.1573 48.8191 40.2013 48.8949 40.0749C51.2154 36.1888 52.5484 31.6409 52.5484 26.7811C52.5484 12.4781 40.9942 0.883096 26.7411 0.883096C12.4878 0.883096 0.933594 12.4781 0.933594 26.7811C0.933594 41.084 12.4878 52.6802 26.7411 52.6802C30.5225 52.6802 34.2736 51.9422 39.779 51.9422V51.9422ZM41.7003 42.5394C42.848 43.5136 43.1974 44.6716 42.59 45.4885C42.2522 45.9364 41.7048 46.1836 41.049 46.1836C40.4048 46.1836 39.7483 45.9442 39.2927 45.545C38.2488 44.6299 37.9421 43.1453 38.6238 42.302C38.89 41.9724 39.3227 41.7907 39.8412 41.7907C40.4719 41.7907 41.1318 42.057 41.7003 42.5394V42.5394ZM46.9976 40.0651C47.1663 41.2003 46.809 41.6702 46.4502 41.6702C46.0587 41.6702 45.5671 41.2101 44.9871 40.3025C44.4149 39.4063 44.2057 38.3783 44.4892 37.8587C44.6766 37.5148 45.0688 37.3654 45.5634 37.5532C46.521 37.9162 46.8971 39.3874 46.9976 40.0651" fill="white"/>
</svg>
