<svg width="242" height="64" viewBox="0 0 242 64" fill="none" xmlns="http://www.w3.org/2000/svg">
<path d="M105.678 39.52V46.648C104.766 45.376 103.374 44.512 101.502 44.512C98.1179 44.512 95.5019 47.32 95.5019 51.4C95.5019 55.456 98.0939 58.288 101.526 58.288C103.374 58.288 104.766 57.472 105.678 56.224V58H109.11V39.52H105.678ZM102.294 55.024C100.398 55.024 98.9579 53.584 98.9579 51.4C98.9579 49.24 100.374 47.776 102.294 47.776C104.214 47.776 105.678 49.24 105.678 51.4C105.678 53.584 104.214 55.024 102.294 55.024ZM118.393 44.512C114.601 44.512 111.529 47.416 111.529 51.4C111.529 55.36 114.553 58.288 118.393 58.288C122.257 58.288 125.281 55.384 125.281 51.4C125.281 47.416 122.209 44.512 118.393 44.512ZM118.393 47.776C120.313 47.776 121.801 49.24 121.801 51.4C121.801 53.584 120.313 55.024 118.393 55.024C116.473 55.024 114.985 53.584 114.985 51.4C114.985 49.24 116.473 47.776 118.393 47.776ZM142.749 44.8L141.645 48.952L140.469 54.208L139.317 48.952L138.213 44.8H134.109L133.005 48.952L131.853 54.256L130.677 48.952L129.573 44.8H126.165L129.789 58H133.749L134.973 53.56L135.933 48.208H136.389L137.349 53.56L138.573 58H142.533L146.157 44.8H142.749ZM155.588 44.512C153.764 44.512 152.444 45.256 151.484 46.6V44.8H148.052V58H151.484V51.064C151.484 48.904 152.516 47.776 154.46 47.776C156.284 47.776 156.932 48.736 156.932 50.464V58H160.364V49.72C160.364 46.48 158.564 44.512 155.588 44.512ZM163.005 58H166.437V39.52H163.005V58ZM175.721 44.512C171.929 44.512 168.857 47.416 168.857 51.4C168.857 55.36 171.881 58.288 175.721 58.288C179.585 58.288 182.609 55.384 182.609 51.4C182.609 47.416 179.537 44.512 175.721 44.512ZM175.721 47.776C177.641 47.776 179.129 49.24 179.129 51.4C179.129 53.584 177.641 55.024 175.721 55.024C173.801 55.024 172.313 53.584 172.313 51.4C172.313 49.24 173.801 47.776 175.721 47.776ZM194.877 44.8V46.648C193.965 45.376 192.573 44.512 190.701 44.512C187.317 44.512 184.701 47.32 184.701 51.4C184.701 55.456 187.269 58.288 190.725 58.288C192.573 58.288 193.941 57.472 194.853 56.224V58H198.285L198.309 44.8H194.877ZM191.493 55.024C189.597 55.024 188.157 53.584 188.157 51.4C188.157 49.24 189.573 47.776 191.493 47.776C193.413 47.776 194.877 49.24 194.877 51.4C194.877 53.584 193.413 55.024 191.493 55.024ZM211.1 39.52V46.648C210.188 45.376 208.796 44.512 206.924 44.512C203.54 44.512 200.924 47.32 200.924 51.4C200.924 55.456 203.516 58.288 206.948 58.288C208.796 58.288 210.188 57.472 211.1 56.224V58H214.532V39.52H211.1ZM207.716 55.024C205.82 55.024 204.38 53.584 204.38 51.4C204.38 49.24 205.796 47.776 207.716 47.776C209.636 47.776 211.1 49.24 211.1 51.4C211.1 53.584 209.636 55.024 207.716 55.024ZM223.839 44.512C219.807 44.512 216.951 47.464 216.951 51.424C216.951 55.36 219.783 58.288 223.911 58.288C226.743 58.288 229.383 56.92 230.367 53.8H226.815C226.359 54.856 225.207 55.456 223.887 55.456C222.111 55.456 220.671 54.4 220.455 52.288H230.583C230.919 47.944 228.207 44.512 223.839 44.512ZM223.815 47.344C225.471 47.344 226.551 48.328 226.935 49.768H220.623C221.055 48.352 222.135 47.344 223.815 47.344ZM240.479 44.512C238.607 44.512 237.167 45.376 236.351 47.104V44.8H232.919V58H236.351V52.12C236.351 49 238.223 48.04 240.407 48.04C240.791 48.04 240.983 48.064 241.247 48.088V44.56C241.031 44.536 240.791 44.512 240.479 44.512Z" fill="white"/>
<path d="M12.0142 18.628C8.70219 17.908 7.44219 17.548 7.44219 16.072C7.44219 14.452 8.73819 13.156 11.7982 13.156C14.8942 13.156 16.1542 14.416 16.6942 16.18H21.9142C21.3382 12.004 18.5302 8.368 11.7622 8.368C6.97419 8.368 2.25819 10.996 2.25819 16.288C2.25819 21.256 6.29019 22.732 10.7902 23.668C15.2182 24.64 16.9822 24.892 16.9822 26.764C16.9822 28.564 15.4702 29.644 12.5542 29.644C8.99019 29.644 7.47819 28.384 6.79419 25.9H1.61019C2.18619 30.256 5.21019 34.432 12.5902 34.432C16.8382 34.432 22.1662 32.416 22.1662 26.548C22.1662 21.544 18.7462 20.068 12.0142 18.628ZM36.9796 13.768C34.2076 13.768 32.0836 15.064 30.7156 16.972V6.28H25.5676V34H30.7156V31.336C32.1196 33.208 34.1716 34.432 36.9796 34.432C42.1276 34.432 46.0156 30.184 46.0156 24.1C46.0156 17.98 42.0556 13.768 36.9796 13.768ZM35.7916 29.536C32.9116 29.536 30.7156 27.376 30.7156 24.1C30.7156 20.86 32.9116 18.664 35.7916 18.664C38.6716 18.664 40.7956 20.86 40.7956 24.1C40.7956 27.376 38.6356 29.536 35.7916 29.536ZM59.4785 13.768C53.4305 13.768 49.1465 18.196 49.1465 24.136C49.1465 30.04 53.3945 34.432 59.5865 34.432C63.8345 34.432 67.7945 32.38 69.2705 27.7H63.9425C63.2585 29.284 61.5305 30.184 59.5505 30.184C56.8865 30.184 54.7265 28.6 54.4025 25.432H69.5945C70.0985 18.916 66.0305 13.768 59.4785 13.768ZM59.4425 18.016C61.9265 18.016 63.5465 19.492 64.1225 21.652H54.6545C55.3025 19.528 56.9225 18.016 59.4425 18.016ZM84.4389 13.768C81.6309 13.768 79.4709 15.064 78.2469 17.656V14.2H73.0989V34H78.2469V25.18C78.2469 20.5 81.0549 19.06 84.3309 19.06C84.9069 19.06 85.1949 19.096 85.5909 19.132V13.84C85.2669 13.804 84.9069 13.768 84.4389 13.768ZM94.7143 29.104L106.99 13.696L106.954 8.8H88.8463V13.696H100.51L88.2703 29.104V34H107.062V29.104H94.7143ZM123.467 14.2L119.039 28.42L114.647 14.2H109.175L115.979 34H122.135L128.939 14.2H123.467ZM144.771 14.2V24.604C144.771 27.844 143.223 29.536 140.379 29.536C137.715 29.536 136.743 28.096 136.743 25.504V14.2H131.595V26.62C131.595 31.444 134.295 34.432 138.651 34.432C141.387 34.432 143.331 33.28 144.771 31.264V34H149.919V14.2H144.771ZM174.009 34L164.361 23.632L173.397 14.2H166.845L159.321 22.444V6.28H154.173V34H159.321V25.36L167.421 34H174.009Z" fill="white"/>
</svg>
