<?xml version="1.0" encoding="utf-8"?>
<!-- Generator: Adobe Illustrator 22.1.0, SVG Export Plug-In . SVG Version: 6.00 Build 0)  -->
<svg version="1.1" id="Слой_2_1_" xmlns="http://www.w3.org/2000/svg" xmlns:xlink="http://www.w3.org/1999/xlink" x="0px"
	 y="0px" viewBox="0 0 60 60" style="enable-background:new 0 0 60 60;" xml:space="preserve">
<style type="text/css">
	.st0{fill:#12103A;}
	.st1{fill:#FFFFFF;}
	.st2{fill:#5B57A2;}
	.st3{fill:#D90751;}
	.st4{fill:#FAB718;}
	.st5{fill:#ED6F26;}
	.st6{fill:#63B22F;}
	.st7{fill:#1487C9;}
	.st8{fill:#017F36;}
	.st9{fill:#984995;}
	.st10{fill:none;}
	.st11{enable-background:new    ;}
</style>
<g>
	<circle class="st0" cx="30" cy="30" r="29.8"/>
	<g>
		<path class="st1" d="M51.9,24.4v6.4h-2.3v-4.5h-2.2v4.5h-2.3v-6.4H51.9L51.9,24.4z"/>
		<path class="st1" d="M40.3,31c2.1,0,3.6-1.3,3.6-3.2c0-1.8-1.1-3-3-3c-0.9,0-1.6,0.3-2.1,0.8c0.1-1.1,1-1.9,2.1-1.9c0.2,0,2,0,2,0
			l1-1.9c0,0-2.2,0.1-3.2,0.1c-2.3,0-3.9,2.2-3.9,4.8C36.7,29.7,38.2,31,40.3,31z M40.4,26.5c0.8,0,1.3,0.5,1.3,1.4
			c0,0.8-0.5,1.4-1.3,1.4s-1.3-0.6-1.3-1.4C39,27,39.6,26.5,40.4,26.5z"/>
		<path class="st1" d="M34.8,28.6c0,0-0.5,0.3-1.4,0.4c-0.9,0-1.8-0.6-1.8-1.6s0.7-1.6,1.7-1.6c0.6,0,1.4,0.4,1.4,0.4
			s0.6-1.1,0.9-1.6c-0.6-0.4-1.3-0.7-2.2-0.7c-2.2,0-3.9,1.4-3.9,3.5s1.6,3.5,3.9,3.4c0.6,0,1.5-0.3,2.1-0.6L34.8,28.6L34.8,28.6z"
			/>
		<path class="st2" d="M5.6,22.7l3.2,5.7v3.5l-3.2,5.7L5.6,22.7z"/>
		<path class="st3" d="M17.8,26.3l3-1.8h6.1l-9.1,5.6V26.3z"/>
		<path class="st4" d="M17.8,22.7v7.5l-3.2-2V17L17.8,22.7L17.8,22.7z"/>
		<path class="st5" d="M26.9,24.5h-6.1l-3-1.8L14.6,17L26.9,24.5L26.9,24.5z"/>
		<path class="st6" d="M17.8,37.6v-3.7L14.6,32v11.3L17.8,37.6z"/>
		<path class="st7" d="M20.8,35.8l-12-7.4l-3.2-5.7l21.3,13L20.8,35.8L20.8,35.8z"/>
		<path class="st8" d="M14.6,43.3l3.2-5.7l3-1.8h6.1L14.6,43.3z"/>
		<path class="st9" d="M5.6,37.5l9-5.5l-3-1.9l-2.8,1.7L5.6,37.5z"/>
		<path class="st9" d="M5.6,17"/>
		<path class="st9" d="M5.6,17"/>
		<path class="st1" d="M5.6,17"/>
		<path class="st1" d="M5.6,17"/>
		<path class="st1" d="M5.6,17"/>
		<path class="st1" d="M5.6,17"/>
		<path class="st1" d="M5.6,17"/>
		<path class="st1" d="M5.6,17"/>
		<rect x="29.9" y="33" class="st10" width="26.1" height="7.2"/>
		<g class="st11">
			<path class="st1" d="M31.1,34.6l0.3,0c0,0.2-0.1,0.3-0.2,0.4s-0.3,0.2-0.4,0.2c-0.2,0-0.4-0.1-0.5-0.2C30,34.8,30,34.6,30,34.4
				c0-0.2,0-0.3,0.1-0.5s0.1-0.2,0.3-0.3s0.2-0.1,0.4-0.1c0.2,0,0.3,0,0.4,0.1c0.1,0.1,0.2,0.2,0.2,0.4l-0.3,0
				c0-0.1-0.1-0.2-0.1-0.2s-0.1-0.1-0.2-0.1c-0.1,0-0.2,0-0.3,0.1c-0.1,0.1-0.1,0.3-0.1,0.5c0,0.2,0,0.4,0.1,0.5s0.2,0.1,0.3,0.1
				c0.1,0,0.2,0,0.3-0.1C31,34.8,31.1,34.7,31.1,34.6z"/>
			<path class="st1" d="M31.6,33.6h0.3v1.2l0.7-1.2h0.3v1.6h-0.3V34l-0.7,1.2h-0.3V33.6z"/>
			<path class="st1" d="M34.3,34.6l0.3,0c0,0.2-0.1,0.3-0.2,0.4s-0.3,0.2-0.4,0.2c-0.2,0-0.4-0.1-0.5-0.2c-0.1-0.1-0.2-0.3-0.2-0.6
				c0-0.2,0-0.3,0.1-0.5s0.1-0.2,0.3-0.3s0.2-0.1,0.4-0.1c0.2,0,0.3,0,0.4,0.1c0.1,0.1,0.2,0.2,0.2,0.4l-0.3,0
				c0-0.1-0.1-0.2-0.1-0.2S34,33.8,34,33.8c-0.1,0-0.2,0-0.3,0.1c-0.1,0.1-0.1,0.3-0.1,0.5c0,0.2,0,0.4,0.1,0.5s0.2,0.1,0.3,0.1
				c0.1,0,0.2,0,0.3-0.1C34.3,34.8,34.3,34.7,34.3,34.6z"/>
			<path class="st1" d="M34.7,33.6H36v0.2h-0.5v1.4h-0.3v-1.4h-0.5V33.6z"/>
			<path class="st1" d="M37.3,34.7l0.3,0c0,0.2-0.1,0.3-0.2,0.4c-0.1,0.1-0.3,0.1-0.5,0.1c-0.2,0-0.4-0.1-0.6-0.2
				c-0.1-0.1-0.2-0.3-0.2-0.6c0-0.3,0.1-0.5,0.2-0.6c0.1-0.1,0.3-0.2,0.5-0.2c0.2,0,0.4,0.1,0.5,0.2s0.2,0.3,0.2,0.6c0,0,0,0,0,0.1
				h-1.2c0,0.2,0.1,0.3,0.1,0.4c0.1,0.1,0.2,0.1,0.3,0.1c0.1,0,0.2,0,0.3-0.1C37.2,34.9,37.3,34.8,37.3,34.7z M36.4,34.2h0.9
				c0-0.1,0-0.2-0.1-0.3c-0.1-0.1-0.2-0.2-0.3-0.2c-0.1,0-0.2,0-0.3,0.1C36.5,34,36.4,34.1,36.4,34.2z"/>
			<path class="st1" d="M37.9,33.6h0.4l0.4,1.3l0.5-1.3h0.4v1.6h-0.3v-1.3l-0.5,1.3h-0.2l-0.4-1.3v1.3h-0.3V33.6z"/>
			<path class="st1" d="M41.1,35c-0.1,0.1-0.2,0.1-0.3,0.2c-0.1,0-0.2,0.1-0.3,0.1c-0.2,0-0.3,0-0.4-0.1c-0.1-0.1-0.1-0.2-0.1-0.3
				c0-0.1,0-0.1,0.1-0.2c0-0.1,0.1-0.1,0.1-0.2c0.1,0,0.1-0.1,0.2-0.1c0.1,0,0.1,0,0.2,0c0.2,0,0.4-0.1,0.5-0.1c0,0,0-0.1,0-0.1
				c0-0.1,0-0.2-0.1-0.2c-0.1-0.1-0.2-0.1-0.3-0.1c-0.1,0-0.2,0-0.3,0.1c-0.1,0-0.1,0.1-0.1,0.2L40,34c0-0.1,0.1-0.2,0.1-0.3
				s0.1-0.1,0.2-0.2s0.2-0.1,0.4-0.1c0.1,0,0.2,0,0.3,0c0.1,0,0.1,0.1,0.2,0.1c0,0,0.1,0.1,0.1,0.2c0,0,0,0.1,0,0.2v0.4
				c0,0.2,0,0.4,0,0.5s0,0.1,0.1,0.2h-0.3C41.1,35.1,41.1,35,41.1,35z M41,34.4c-0.1,0-0.2,0.1-0.4,0.1c-0.1,0-0.2,0-0.2,0.1
				c0,0-0.1,0-0.1,0.1c0,0,0,0.1,0,0.1c0,0.1,0,0.1,0.1,0.2c0.1,0,0.1,0.1,0.2,0.1c0.1,0,0.2,0,0.3-0.1c0.1,0,0.1-0.1,0.2-0.2
				C41,34.7,41,34.6,41,34.4L41,34.4z"/>
			<path class="st1" d="M43.7,32.9l0.2,0c0,0.1,0,0.2-0.1,0.2c0,0-0.1,0.1-0.1,0.1c-0.1,0-0.2,0-0.3,0c-0.2,0-0.4,0-0.5,0.1
				s-0.1,0.1-0.2,0.2c0,0.1-0.1,0.2-0.1,0.4c0.1-0.1,0.1-0.2,0.2-0.2c0.1-0.1,0.2-0.1,0.3-0.1c0.2,0,0.4,0.1,0.5,0.2
				c0.1,0.1,0.2,0.3,0.2,0.6c0,0.2,0,0.3-0.1,0.5c-0.1,0.1-0.2,0.2-0.2,0.3c-0.1,0.1-0.2,0.1-0.4,0.1c-0.2,0-0.3,0-0.4-0.1
				c-0.1-0.1-0.2-0.2-0.2-0.3c-0.1-0.1-0.1-0.4-0.1-0.7c0-0.4,0.1-0.7,0.2-0.8c0.1-0.1,0.4-0.2,0.7-0.2C43.6,33,43.7,33,43.7,32.9
				C43.7,33,43.7,32.9,43.7,32.9z M43.7,34.4c0-0.2,0-0.3-0.1-0.4c-0.1-0.1-0.2-0.2-0.3-0.2c-0.1,0-0.3,0.1-0.3,0.2
				c-0.1,0.1-0.1,0.3-0.1,0.4c0,0.2,0,0.3,0.1,0.4c0.1,0.1,0.2,0.1,0.3,0.1c0.1,0,0.2-0.1,0.3-0.2C43.7,34.7,43.7,34.6,43.7,34.4z"
				/>
			<path class="st1" d="M44.3,33.6h0.3v0.6h0.3c0.2,0,0.4,0,0.5,0.1s0.2,0.2,0.2,0.4c0,0.1-0.1,0.2-0.2,0.3
				c-0.1,0.1-0.3,0.1-0.5,0.1h-0.7V33.6z M44.6,34.9h0.3c0.2,0,0.3,0,0.4-0.1c0.1,0,0.1-0.1,0.1-0.2c0-0.1,0-0.1-0.1-0.2
				c-0.1-0.1-0.2-0.1-0.4-0.1h-0.3V34.9z M45.8,33.6h0.3v1.6h-0.3V33.6z"/>
			<path class="st1" d="M47.6,34.6l0.3,0c0,0.2-0.1,0.3-0.2,0.4s-0.3,0.2-0.4,0.2c-0.2,0-0.4-0.1-0.5-0.2c-0.1-0.1-0.2-0.3-0.2-0.6
				c0-0.2,0-0.3,0.1-0.5s0.1-0.2,0.3-0.3s0.2-0.1,0.4-0.1c0.2,0,0.3,0,0.4,0.1c0.1,0.1,0.2,0.2,0.2,0.4l-0.3,0
				c0-0.1-0.1-0.2-0.1-0.2s-0.1-0.1-0.2-0.1c-0.1,0-0.2,0-0.3,0.1c-0.1,0.1-0.1,0.3-0.1,0.5c0,0.2,0,0.4,0.1,0.5S47,35,47.2,35
				c0.1,0,0.2,0,0.3-0.1C47.5,34.8,47.6,34.7,47.6,34.6z"/>
			<path class="st1" d="M47.9,33.6h1.3v0.2h-0.5v1.4h-0.3v-1.4h-0.5V33.6z"/>
			<path class="st1" d="M49.5,35.8v-2.2h0.2v0.2c0.1-0.1,0.1-0.1,0.2-0.2c0.1,0,0.2-0.1,0.3-0.1c0.1,0,0.3,0,0.4,0.1
				c0.1,0.1,0.2,0.2,0.2,0.3c0.1,0.1,0.1,0.3,0.1,0.4c0,0.2,0,0.3-0.1,0.4c-0.1,0.1-0.1,0.2-0.3,0.3s-0.2,0.1-0.4,0.1
				c-0.1,0-0.2,0-0.2-0.1c-0.1,0-0.1-0.1-0.2-0.1v0.8H49.5z M49.7,34.4c0,0.2,0,0.4,0.1,0.5S50,35,50.1,35c0.1,0,0.2-0.1,0.3-0.2
				c0.1-0.1,0.1-0.3,0.1-0.5c0-0.2,0-0.4-0.1-0.5c-0.1-0.1-0.2-0.2-0.3-0.2s-0.2,0.1-0.3,0.2C49.8,34,49.7,34.2,49.7,34.4z"/>
			<path class="st1" d="M51.2,33.6h0.3v0.6h0.3c0.2,0,0.4,0,0.5,0.1c0.1,0.1,0.2,0.2,0.2,0.4c0,0.1,0,0.2-0.2,0.3
				c-0.1,0.1-0.3,0.1-0.5,0.1h-0.7V33.6z M51.5,34.9h0.3c0.2,0,0.3,0,0.4-0.1c0.1,0,0.1-0.1,0.1-0.2c0-0.1,0-0.1-0.1-0.2
				c-0.1-0.1-0.2-0.1-0.4-0.1h-0.3V34.9z M52.7,33.6H53v1.6h-0.3V33.6z"/>
			<path class="st1" d="M53.2,35.2l0.6-0.8l-0.5-0.8h0.3l0.2,0.4c0,0.1,0.1,0.1,0.1,0.2c0-0.1,0.1-0.1,0.1-0.2l0.3-0.4h0.3l-0.5,0.7
				l0.6,0.8h-0.3L54,34.7l-0.1-0.1l-0.4,0.6H53.2z"/>
		</g>
		<g class="st11">
			<path class="st1" d="M30.1,36.9h1.3v1.6H31v-1.4h-0.7v1.4h-0.3V36.9z"/>
			<path class="st1" d="M31.9,36.9h1.3v1.6h-0.3v-1.4h-0.7v0.8c0,0.2,0,0.3,0,0.4c0,0.1,0,0.1-0.1,0.2s-0.1,0.1-0.2,0.1
				c-0.1,0-0.1,0-0.2,0v-0.2h0.1c0.1,0,0.1,0,0.1,0c0,0,0,0,0-0.1s0-0.1,0-0.2V36.9z"/>
			<path class="st1" d="M34.5,38.3c-0.1,0.1-0.2,0.1-0.3,0.2c-0.1,0-0.2,0.1-0.3,0.1c-0.2,0-0.3,0-0.4-0.1c-0.1-0.1-0.1-0.2-0.1-0.3
				c0-0.1,0-0.1,0.1-0.2c0-0.1,0.1-0.1,0.1-0.2c0.1,0,0.1-0.1,0.2-0.1c0.1,0,0.1,0,0.2,0c0.2,0,0.4-0.1,0.5-0.1c0,0,0-0.1,0-0.1
				c0-0.1,0-0.2-0.1-0.2c-0.1-0.1-0.2-0.1-0.3-0.1c-0.1,0-0.2,0-0.3,0.1c-0.1,0-0.1,0.1-0.1,0.2l-0.3,0c0-0.1,0.1-0.2,0.1-0.3
				s0.1-0.1,0.2-0.2s0.2-0.1,0.4-0.1c0.1,0,0.2,0,0.3,0c0.1,0,0.1,0.1,0.2,0.1c0,0,0.1,0.1,0.1,0.2c0,0,0,0.1,0,0.2v0.4
				c0,0.2,0,0.4,0,0.5s0,0.1,0.1,0.2h-0.3C34.6,38.4,34.6,38.3,34.5,38.3z M34.5,37.7c-0.1,0-0.2,0.1-0.4,0.1c-0.1,0-0.2,0-0.2,0.1
				c0,0-0.1,0-0.1,0.1c0,0,0,0.1,0,0.1c0,0.1,0,0.1,0.1,0.2c0.1,0,0.1,0.1,0.2,0.1c0.1,0,0.2,0,0.3-0.1c0.1,0,0.1-0.1,0.2-0.2
				C34.5,38,34.5,37.9,34.5,37.7L34.5,37.7z"/>
			<path class="st1" d="M35,36.9h1.3v0.2h-0.5v1.4h-0.3v-1.4H35V36.9z"/>
			<path class="st1" d="M37.6,38l0.3,0c0,0.2-0.1,0.3-0.2,0.4c-0.1,0.1-0.3,0.1-0.5,0.1c-0.2,0-0.4-0.1-0.6-0.2
				c-0.1-0.1-0.2-0.3-0.2-0.6c0-0.3,0.1-0.5,0.2-0.6c0.1-0.1,0.3-0.2,0.5-0.2c0.2,0,0.4,0.1,0.5,0.2s0.2,0.3,0.2,0.6c0,0,0,0,0,0.1
				h-1.2c0,0.2,0.1,0.3,0.1,0.4c0.1,0.1,0.2,0.1,0.3,0.1c0.1,0,0.2,0,0.3-0.1C37.5,38.2,37.6,38.1,37.6,38z M36.7,37.5h0.9
				c0-0.1,0-0.2-0.1-0.3c-0.1-0.1-0.2-0.2-0.3-0.2c-0.1,0-0.2,0-0.3,0.1C36.8,37.3,36.7,37.4,36.7,37.5z"/>
			<path class="st1" d="M39.1,36.9v0.7c0.1,0,0.1,0,0.2,0c0,0,0.1-0.1,0.2-0.3c0.1-0.2,0.1-0.2,0.2-0.3c0,0,0.1-0.1,0.2-0.1H40v0.2
				l-0.1,0c-0.1,0-0.1,0-0.1,0c0,0-0.1,0.1-0.1,0.2c0,0.1-0.1,0.2-0.1,0.2c0,0-0.1,0.1-0.2,0.1c0.1,0,0.2,0.1,0.3,0.3l0.3,0.5h-0.3
				L39.5,38c-0.1-0.1-0.1-0.2-0.2-0.2s-0.1,0-0.2,0v0.7h-0.3v-0.7c-0.1,0-0.1,0-0.2,0s-0.1,0.1-0.2,0.2l-0.3,0.5H38l0.3-0.5
				c0.1-0.2,0.2-0.3,0.3-0.3c-0.1,0-0.1-0.1-0.2-0.1c0,0-0.1-0.1-0.1-0.3c0-0.1,0-0.1-0.1-0.1c0,0-0.1,0-0.1,0c0,0,0,0-0.1,0v-0.2h0
				c0.1,0,0.2,0,0.2,0c0,0,0.1,0,0.1,0.1c0,0,0.1,0.1,0.1,0.3c0.1,0.2,0.1,0.3,0.2,0.3c0,0,0.1,0.1,0.2,0.1v-0.7H39.1z"/>
			<path class="st1" d="M41.3,38l0.3,0c0,0.2-0.1,0.3-0.2,0.4c-0.1,0.1-0.3,0.1-0.5,0.1c-0.2,0-0.4-0.1-0.6-0.2
				c-0.1-0.1-0.2-0.3-0.2-0.6c0-0.3,0.1-0.5,0.2-0.6c0.1-0.1,0.3-0.2,0.5-0.2c0.2,0,0.4,0.1,0.5,0.2s0.2,0.3,0.2,0.6c0,0,0,0,0,0.1
				h-1.2c0,0.2,0.1,0.3,0.1,0.4c0.1,0.1,0.2,0.1,0.3,0.1c0.1,0,0.2,0,0.3-0.1C41.2,38.2,41.3,38.1,41.3,38z M40.4,37.5h0.9
				c0-0.1,0-0.2-0.1-0.3c-0.1-0.1-0.2-0.2-0.3-0.2c-0.1,0-0.2,0-0.3,0.1C40.5,37.3,40.4,37.4,40.4,37.5z"/>
			<path class="st1" d="M41.9,36.9h0.3v1.2l0.7-1.2h0.3v1.6H43v-1.2l-0.7,1.2h-0.3V36.9z M42.9,36.3h0.2c0,0.1-0.1,0.2-0.1,0.3
				c-0.1,0.1-0.2,0.1-0.3,0.1s-0.2,0-0.3-0.1s-0.1-0.2-0.1-0.3h0.2c0,0.1,0,0.1,0.1,0.2c0,0,0.1,0,0.2,0c0.1,0,0.1,0,0.2,0
				C42.8,36.4,42.9,36.3,42.9,36.3z"/>
		</g>
	</g>
</g>
</svg>
