<svg width="79" height="49" viewBox="0 0 79 49" fill="none" xmlns="http://www.w3.org/2000/svg">
<path d="M50.9481 0C35.3269 0 22.9009 11.0095 22.9009 24.5C22.9009 38.1456 35.5045 49 50.9481 49C66.3919 49 78.9955 37.9905 78.9955 24.5C78.9955 11.0095 66.3919 0 50.9481 0ZM50.9481 33.6487C45.2677 33.6487 40.4749 29.462 40.4749 24.5C40.4749 19.538 45.2677 15.3513 50.9481 15.3513C56.6286 15.3513 61.4215 19.538 61.4215 24.5C61.2443 29.462 56.6286 33.6487 50.9481 33.6487Z" fill="white"/>
<path d="M22.7219 7.13293V42.7974H12.7811L0 7.13293H22.7219Z" fill="white"/>
</svg>
